<?xml version="1.0" standalone="no"?><!DOCTYPE svg PUBLIC "-//W3C//DTD SVG 1.1//EN" "http://www.w3.org/Graphics/SVG/1.1/DTD/svg11.dtd"><svg t="1730355478347" class="icon" viewBox="0 0 1024 1024" version="1.1" xmlns="http://www.w3.org/2000/svg" p-id="3801" xmlns:xlink="http://www.w3.org/1999/xlink" width="64" height="64"><path d="M813.176471 129.505882A81.317647 81.317647 0 0 1 894.494118 210.823529v632.470589a81.317647 81.317647 0 0 1-81.317647 81.317647H210.823529A81.317647 81.317647 0 0 1 129.505882 843.294118V210.823529A81.317647 81.317647 0 0 1 210.823529 129.505882h602.352942z m0 42.164706H210.823529A39.152941 39.152941 0 0 0 171.670588 210.823529v632.470589A39.152941 39.152941 0 0 0 210.823529 882.447059h602.352942a39.152941 39.152941 0 0 0 39.152941-39.152941V210.823529A39.152941 39.152941 0 0 0 813.176471 171.670588z" fill="#3D3C3B" p-id="3802"></path><path d="M680.267294 444.084706a21.082353 21.082353 0 1 1 29.033412 30.599529l-188.717177 179.109647a51.2 51.2 0 0 1-70.565647-0.060235l-112.880941-107.489882a21.082353 21.082353 0 1 1 29.06353-30.539294l112.880941 107.52a9.035294 9.035294 0 0 0 12.468706 0l188.717176-179.139765z" fill="#FA8E00" p-id="3803"></path><path d="M316.235294 777.035294a21.082353 21.082353 0 0 1 0 42.164706h-60.235294a21.082353 21.082353 0 0 1 0-42.164706h60.235294zM617.411765 777.035294a21.082353 21.082353 0 0 1 0 42.164706h-210.82353a21.082353 21.082353 0 0 1 0-42.164706h210.82353zM768 777.035294a21.082353 21.082353 0 0 1 0 42.164706h-60.235294a21.082353 21.082353 0 0 1 0-42.164706h60.235294z" fill="#3D3C3B" p-id="3804"></path><path d="M150.588235 150.588235m60.235294 0l602.352942 0q60.235294 0 60.235294 60.235294l0 60.235295q0 60.235294-60.235294 60.235294l-602.352942 0q-60.235294 0-60.235294-60.235294l0-60.235295q0-60.235294 60.235294-60.235294Z" fill="#FA8E00" p-id="3805"></path><path d="M813.176471 129.505882A81.317647 81.317647 0 0 1 894.494118 210.823529v60.235295a81.317647 81.317647 0 0 1-81.317647 81.317647H210.823529A81.317647 81.317647 0 0 1 129.505882 271.058824V210.823529A81.317647 81.317647 0 0 1 210.823529 129.505882h602.352942z m0 42.164706H210.823529A39.152941 39.152941 0 0 0 171.670588 210.823529v60.235295A39.152941 39.152941 0 0 0 210.823529 310.211765h602.352942A39.152941 39.152941 0 0 0 852.329412 271.058824V210.823529A39.152941 39.152941 0 0 0 813.176471 171.670588z" fill="#3D3C3B" p-id="3806"></path><path d="M331.294118 69.270588a21.082353 21.082353 0 0 1 21.082353 21.082353v60.235294a21.082353 21.082353 0 0 1-42.164706 0V90.352941a21.082353 21.082353 0 0 1 21.082353-21.082353zM692.705882 69.270588a21.082353 21.082353 0 0 1 21.082353 21.082353v60.235294a21.082353 21.082353 0 0 1-42.164706 0V90.352941a21.082353 21.082353 0 0 1 21.082353-21.082353z" fill="#3D3C3B" p-id="3807"></path></svg>